<svg height="260pt" preserveAspectRatio="xMidYMid meet" viewBox="0 0 260 260" width="260pt" xmlns="http://www.w3.org/2000/svg"><g transform="matrix(.1 0 0 -.1 0 260)"><path d="m0 1300v-1300h1300 1300v1300 1300h-1300-1300zm1823 637c72-31 137-112 137-172 0-26 0-26-77-24l-76 2-27-39c-15-21-136-221-270-444s-248-413-255-423c-10-15-37 20-200 263-103 155-186 282-184 283s46 1 97-1l93-3 89-135c50-74 92-134 94-134 5 0 338 586 348 612 7 17-11 18-422 18h-430v25c0 59 65 140 135 171 44 19 902 20 948 1z"/><path d="m1663 1763c26-2 67-2 90 0s2 3-48 3c-49 0-68-1-42-3z"/></g></svg>